<?xml version="1.0"?>
<svg xmlns="http://www.w3.org/2000/svg" xmlns:xlink="http://www.w3.org/1999/xlink" version="1.1" viewBox="0 0 224 224" width="192px" height="192px"><g fill="none" fill-rule="nonzero" stroke="none" stroke-width="1" stroke-linecap="butt" stroke-linejoin="miter" stroke-miterlimit="10" stroke-dasharray="" stroke-dashoffset="0" font-family="none" font-weight="none" font-size="none" text-anchor="none" style="mix-blend-mode: normal"><path d="M0,224v-224h224v224z" fill="none"/><g><g id="surface1"><path d="M116.73958,18.66667l-66.57292,14.96614c-1.36719,0.34636 -12.83333,3.09896 -12.83333,9.71615v124.61458c1.73177,0.03646 3.35417,0.03646 4.73958,0.03646l74.66667,-23.33333c0,0 4.66667,-1.75 4.66667,-9.33333c0,-4.66667 0,-112.01823 0,-112.01823c0,-2.57031 -2.09636,-4.64844 -4.66667,-4.64844z" fill="#394032"/><path d="M116.73958,18.66667l-66.57292,14.96614c-1.36719,0.34636 -12.83333,3.09896 -12.83333,9.71615v124.61458c1.73177,0.03646 3.35417,0.03646 4.73958,0.03646l74.66667,-23.33333c0,0 4.66667,-1.75 4.66667,-9.33333c0,-4.66667 0,-112.01823 0,-112.01823c0,-2.57031 -2.09636,-4.64844 -4.66667,-4.64844z" fill="#000000"/><path d="M144.66667,34.01563l-74.66667,18.66667c-10.5,2.71614 -32.73958,4.66667 -32.66667,-9.33333h-0.07292c0,45.08073 0,124.65104 0,124.65104h0.07292c-0.07292,14 22.36719,14 32.66667,14l74.66667,-23.33333c0,0 4.66667,-1.75 4.66667,-9.33333c0,-4.66667 0,-110.65104 0,-110.65104c0,-2.57032 -2.07812,-4.66667 -4.66667,-4.66667z" fill="#394032"/><path d="M154.07292,40.25l-66.57292,16.71614c-1.36719,0.34636 -12.83333,3.09896 -12.83333,9.71615v124.61458c1.73177,0.03646 3.35417,0.03646 4.73958,0.03646l74.66667,-23.33333c0,0 4.66667,-1.75 4.66667,-9.33333c0,-4.66667 0,-113.76823 0,-113.76823c0,-2.57031 -2.09636,-4.64844 -4.66667,-4.64844z" fill="#394032"/><path d="M154.07292,40.25l-66.57292,16.71614c-1.36719,0.34636 -12.83333,3.09896 -12.83333,9.71615v124.61458c1.73177,0.03646 3.35417,0.03646 4.73958,0.03646l74.66667,-23.33333c0,0 4.66667,-1.75 4.66667,-9.33333c0,-4.66667 0,-113.76823 0,-113.76823c0,-2.57031 -2.09636,-4.64844 -4.66667,-4.64844z" fill="#2a9696"/><path d="M74.66667,191.29688c-0.07292,14 22.36719,14.03646 32.66667,14.03646l74.66667,-24.88281c0,0 4.66667,-1.75 4.66667,-9.33333c0,-4.66667 0,-110.45052 0,-110.45052c0,-2.57031 -2.07812,-4.64844 -4.66667,-4.64844l-74.66667,19.9974c-10.5,2.71614 -32.73958,4.66667 -32.66667,-9.33333" fill="#394032"/><path d="M74.66667,191.29688c-0.07292,14 22.36719,14.03646 32.66667,14.03646l74.66667,-24.88281c0,0 4.66667,-1.75 4.66667,-9.33333c0,-4.66667 0,-110.45052 0,-110.45052c0,-2.57031 -2.07812,-4.64844 -4.66667,-4.64844l-74.66667,19.9974c-10.5,2.71614 -32.73958,4.66667 -32.66667,-9.33333" fill="#51cccc"/><path d="M51.33333,49.20052c3.51823,2.04167 9.15104,3.48177 14.09114,4.46614c1.67708,-0.29167 3.22657,-0.61979 4.57552,-0.98437l67.73958,-16.9349l-21.07292,-7.74739l-60.28386,14.58333c0,0 -12.43229,2.33333 -5.04948,6.61719z" fill="#f3f3f3"/><path d="M88.66667,72.53386c3.51823,2.04167 9.15104,3.48177 14.09114,4.46614c1.67708,-0.29167 3.22657,-0.61979 4.57552,-0.98437l69.50781,-18.61198l-22.84114,-7.82031l-60.28386,16.33333c0,0 -12.43229,2.33333 -5.04948,6.61719z" fill="#f3f3f3"/><path d="M177.33333,116.66667v-23.33333l-65.33333,18.66667v23.33333z" fill="#ffffff"/></g></g></g></svg>
